<svg width="757" height="1875" viewBox="0 0 757 1875" fill="none" xmlns="http://www.w3.org/2000/svg">
<g opacity="0.5" filter="url(#filter0_f_615_755)">
<path fill-rule="evenodd" clip-rule="evenodd" d="M-17.9579 287.354C-54.0214 299.576 -94.191 241.347 -124.678 307.354C-155.142 373.314 -159.228 514.918 -174.288 625.827C-187.932 726.312 -201.031 822.697 -209.187 929.72C-219.569 1065.97 -254.529 1228.87 -228.654 1339.3C-201.103 1456.88 -139.781 1343 -98.767 1400.98C-65.3099 1448.28 -52.6384 1601.2 -17.9579 1637.15C19.6841 1676.16 61.1759 1653.62 97.7838 1604.7C137.347 1551.84 527.511 1551.78 538.74 1413.54C550.587 1267.69 154.066 1080.85 152.61 929.72C151.23 786.419 107.88 646.392 97.7838 507.104C87.8022 369.399 141.777 276.303 101.931 230.554C63.072 185.939 22.8918 273.51 -17.9579 287.354Z" fill="url(#paint0_linear_615_755)"/>
</g>
<defs>
<filter id="filter0_f_615_755" x="-456" y="0" width="1213" height="1875" filterUnits="userSpaceOnUse" color-interpolation-filters="sRGB">
<feFlood flood-opacity="0" result="BackgroundImageFix"/>
<feBlend mode="normal" in="SourceGraphic" in2="BackgroundImageFix" result="shape"/>
<feGaussianBlur stdDeviation="109" result="effect1_foregroundBlur_615_755"/>
</filter>
<linearGradient id="paint0_linear_615_755" x1="-21.0122" y1="-352.456" x2="710.23" y2="-129.091" gradientUnits="userSpaceOnUse">
<stop stop-color="#19A4D7"/>
<stop offset="0.600896" stop-color="#C0D908"/>
</linearGradient>
</defs>
</svg>
