<svg width="655" height="2091" viewBox="0 0 655 2091" fill="none" xmlns="http://www.w3.org/2000/svg">
<g opacity="0.5" filter="url(#filter0_f_615_753)">
<path fill-rule="evenodd" clip-rule="evenodd" d="M792.038 297.764C841.346 311.821 896.268 244.852 937.95 320.767C979.603 396.627 985.189 559.486 1005.78 687.043C1024.44 802.611 1042.35 913.465 1053.5 1036.55C1067.69 1193.25 1115.49 1380.6 1080.11 1507.61C1042.44 1642.84 1019.58 1321.82 963.5 1388.5C917.755 1442.9 839.455 1808.83 792.038 1850.17C740.572 1895.04 683.841 1869.11 633.789 1812.85C579.696 1752.05 512.51 1677.73 497.157 1518.74C480.959 1350.99 556.838 1210.37 558.828 1036.55C560.715 871.742 204.587 716.196 218.391 556C232.039 397.624 573.639 285.055 628.119 232.439C681.249 181.126 736.186 281.842 792.038 297.764Z" fill="url(#paint0_linear_615_753)"/>
</g>
<defs>
<filter id="filter0_f_615_753" x="0" y="0" width="1310.89" height="2091" filterUnits="userSpaceOnUse" color-interpolation-filters="sRGB">
<feFlood flood-opacity="0" result="BackgroundImageFix"/>
<feBlend mode="normal" in="SourceGraphic" in2="BackgroundImageFix" result="shape"/>
<feGaussianBlur stdDeviation="109" result="effect1_foregroundBlur_615_753"/>
</filter>
<linearGradient id="paint0_linear_615_753" x1="55.4601" y1="-334.552" x2="-203.16" y2="659.801" gradientUnits="userSpaceOnUse">
<stop offset="0.224241" stop-color="#19A4D7"/>
<stop offset="1" stop-color="#B6CE08"/>
</linearGradient>
</defs>
</svg>
