<svg width="145" height="48" viewBox="0 0 145 48" fill="none" xmlns="http://www.w3.org/2000/svg">
<path d="M15.9036 1.16955C17.0991 0.530988 17.3389 0.308878 18.6387 0.961325L34.2745 9.95677L23.5877 16.0683L8.86245 7.66973C8.01098 7.21163 6.91971 6.95135 5.95703 6.89235L15.9036 1.16955Z" fill="#D9F802"/>
<path d="M34.2745 9.9533V29.4191L22.8926 35.9853C22.8926 35.9853 23.2436 35.1836 23.3583 34.7498C23.4764 34.3194 23.5911 34.0696 23.5911 33.2367C23.5911 32.7681 23.5911 16.0613 23.5911 16.0613L34.2779 9.94983L34.2745 9.9533Z" fill="#ABC302"/>
<path d="M22.7567 29.846C22.8505 30.6269 22.8227 32.4697 22.7671 33.2852C22.5168 37.0264 18.8434 39.3585 15.3506 37.9114L0.896484 29.6412L11.6632 23.4742L22.7532 29.846H22.7567Z" fill="#D9F802"/>
<path d="M11.229 9.95677L11.222 22.8322L0.521301 28.8743V13.7743C0.316254 10.2171 2.98882 7.45109 6.60322 7.77385C7.85089 7.8849 10.162 9.32167 11.2324 9.95677H11.229Z" fill="#ABC302"/>
<path d="M2.94383 47.4309C1.36253 47.712 0.625746 46.6917 0.521484 45.4249V30.3562L11.2083 36.4538L11.2222 42.5896C11.2222 42.7457 11.0901 42.8394 10.9059 42.9435C10.7217 43.0477 4.52165 47.1532 2.94035 47.4309H2.94383Z" fill="#ABC302"/>
<path d="M40.4639 11.2339H47.3243C49.062 11.2339 50.4695 11.7614 51.5503 12.8199C52.6277 13.8784 53.1699 15.27 53.1699 16.9983C53.1699 18.7266 52.6138 20.1079 51.4982 21.1698C50.3826 22.2318 48.9334 22.7628 47.1505 22.7628H43.9949V28.0726H40.4639V11.2304V11.2339ZM43.9949 14.0241V20.0107H46.379C47.3903 20.0107 48.1792 19.7504 48.7388 19.2298C49.2983 18.7093 49.5798 17.9701 49.5798 17.0122C49.5798 16.0544 49.3018 15.3186 48.7457 14.8015C48.1896 14.2844 47.4042 14.0241 46.3894 14.0241H43.9949Z" fill="white"/>
<path d="M66.5117 28.0761L65.2258 23.9913H59.3003L58.0144 28.0761H54.3931L60.2491 11.2339H64.3987L70.2651 28.0761H66.5152H66.5117ZM62.2196 14.4545L60.0579 21.3503H64.4647L62.303 14.4545H62.2196Z" fill="white"/>
<path d="M79.7602 28.0761H76.2292V21.7841L70.3628 11.2339H74.2066L77.9808 18.4247H78.0642L81.8524 11.2339H85.6406L79.7602 21.7841V28.0761Z" fill="white"/>
<path d="M89.1504 11.2339H95.5903C98.1308 11.2339 100.105 11.9627 101.516 13.4168C102.927 14.8709 103.632 16.9289 103.632 19.5908C103.632 22.2526 102.927 24.3418 101.512 25.8341C100.098 27.3264 98.1238 28.0761 95.5938 28.0761H89.1539V11.2339H89.1504ZM92.6814 14.1387V25.1574H95.1698C96.7511 25.1574 97.957 24.6854 98.7876 23.738C99.6183 22.794 100.032 21.4128 100.032 19.6012C100.032 17.7896 99.6113 16.4916 98.7703 15.5511C97.9292 14.6106 96.7302 14.1387 95.1698 14.1387H92.6814Z" fill="white"/>
<path d="M118.038 28.0761L116.752 23.9913H110.827L109.541 28.0761H105.919L111.775 11.2339H115.925L121.792 28.0761H118.042H118.038ZM113.749 14.4545L111.588 21.3503H115.995L113.833 14.4545H113.749Z" fill="white"/>
<path d="M124.228 28.0761L129.58 19.6394V19.5457L124.262 11.2374H128.412L131.988 17.3072H132.082L135.693 11.2374H139.63L134.115 19.6185V19.7018L139.561 28.083H135.54L131.846 22.1902H131.752L128.037 28.083H124.228V28.0761Z" fill="white"/>
</svg>
